<svg width="266" height="54" viewBox="0 0 266 54" fill="none" xmlns="http://www.w3.org/2000/svg">
<rect y="13" width="8" height="36" fill="white"/>
<rect x="12" y="19" width="8" height="30" fill="white"/>
<rect x="24" y="29" width="8" height="20" fill="white"/>
<path d="M51.696 39L50.736 35.0107H44.6773L43.8667 39H37.5947L44.1013 15.7253L43.5893 13.9973H52.4L59.5253 39H51.696ZM47.4293 21.336L45.552 30.6587H49.6907L47.4293 21.336ZM67.4282 39H60.3668V13.9973H63.1828C63.9366 13.9973 65.0744 13.9689 66.5962 13.912C68.1179 13.8409 69.3695 13.8053 70.3508 13.8053C73.1099 13.8053 75.2006 14.5378 76.6228 16.0027C78.0451 17.4676 78.7562 19.6649 78.7562 22.5947C78.7562 24.3582 78.5215 25.9653 78.0522 27.416C77.5971 28.8524 76.9784 30.0329 76.1962 30.9573C75.4139 31.8818 74.5251 32.5929 73.5295 33.0907C72.5339 33.5884 71.4815 33.8373 70.3722 33.8373C70.2299 33.8373 70.0806 33.8373 69.9242 33.8373C69.7819 33.8373 69.6468 33.8373 69.5188 33.8373C69.4051 33.8231 69.2628 33.816 69.0922 33.816C68.9357 33.8018 68.8077 33.7947 68.7082 33.7947C68.6228 33.7804 68.4948 33.7733 68.3242 33.7733C68.1677 33.7591 68.0611 33.752 68.0042 33.752C67.9473 33.752 67.8406 33.7449 67.6842 33.7307C67.5277 33.7164 67.4424 33.7093 67.4282 33.7093V39ZM71.7588 21.656C71.7588 20.6036 71.4744 19.7502 70.9055 19.096C70.3366 18.4418 69.5188 18.1147 68.4522 18.1147H67.4282V29.208H68.2175C69.3411 29.208 70.2086 28.8311 70.8202 28.0773C71.4459 27.3236 71.7588 26.2356 71.7588 24.8133V21.656ZM84.3348 39V19.6507H79.3428V13.9973H96.5375V19.6507H91.5455V39H84.3348ZM114.01 30.68V39H106.928V13.9973H109.744C110.426 13.9973 111.443 13.9689 112.794 13.912C114.146 13.8409 115.262 13.8053 116.144 13.8053C119.216 13.8053 121.506 14.4809 123.013 15.832C124.535 17.1831 125.296 19.2524 125.296 22.04C125.296 23.6898 124.933 25.1547 124.208 26.4347C123.497 27.7147 122.551 28.7316 121.37 29.4853C122.01 29.6418 122.558 30.0044 123.013 30.5733C123.483 31.1422 123.845 31.8178 124.101 32.6C124.357 33.368 124.578 34.1502 124.762 34.9467C124.962 35.7289 125.182 36.504 125.424 37.272C125.68 38.04 125.957 38.616 126.256 39H118.384C118.227 38.8009 118.106 38.2462 118.021 37.336C117.936 36.4116 117.815 35.3093 117.658 34.0293C117.516 32.7351 117.31 31.6542 117.04 30.7867C117.011 30.7867 116.976 30.7867 116.933 30.7867C116.663 30.7867 116.371 30.7867 116.059 30.7867C115.76 30.7724 115.497 30.7582 115.269 30.744C115.042 30.7298 114.8 30.7156 114.544 30.7013C114.302 30.6871 114.124 30.68 114.01 30.68ZM114.01 26.712H114.693C115.049 26.712 115.347 26.6978 115.589 26.6693C115.831 26.6409 116.094 26.5911 116.378 26.52C116.677 26.4347 116.919 26.3067 117.104 26.136C117.303 25.9653 117.488 25.7449 117.658 25.4747C117.829 25.2044 117.957 24.856 118.042 24.4293C118.128 24.0027 118.17 23.5049 118.17 22.936V21.2507C118.17 20.0133 117.843 19.1529 117.189 18.6693C116.549 18.1716 115.625 17.9227 114.416 17.9227H114.01V26.712ZM139.884 39L138.924 35.0107H132.865L132.054 39H125.782L132.289 15.7253L131.777 13.9973H140.587L147.713 39H139.884ZM135.617 21.336L133.74 30.6587H137.878L135.617 21.336ZM155.338 39H148.554V16.0027L147.509 13.9973H155.36L159.285 22.104L163.04 30.1893L161.994 20.696V13.9973H168.8V39H162.293L157.216 29.1227L154.08 22.936L155.338 31.128V39ZM183.775 39C183.605 38.7867 183.235 37.9547 182.666 36.504C182.111 35.0391 181.457 33.3893 180.703 31.5547C179.964 29.7058 179.31 28.3049 178.741 27.352V39H171.679V13.9973H178.741V25.9653L184.053 13.9973H191.157L184.799 25.7307C185.212 26.0151 185.759 26.7902 186.442 28.056C187.125 29.3218 187.765 30.6516 188.362 32.0453C188.959 33.4391 189.578 34.84 190.218 36.248C190.858 37.6418 191.327 38.5591 191.626 39H183.775ZM192.806 39V13.9973H200.08V39H192.806ZM209.776 39H202.992V16.0027L201.947 13.9973H209.797L213.722 22.104L217.477 30.1893L216.432 20.696V13.9973H223.237V39H216.731L211.653 29.1227L208.517 22.936L209.776 31.128V39ZM241.349 36.7387C239.543 38.5449 237.395 39.448 234.906 39.448C233.143 39.448 231.614 39.1422 230.319 38.5307C229.039 37.9191 228.023 37.0373 227.269 35.8853C226.515 34.7333 225.96 33.4178 225.605 31.9387C225.263 30.4596 225.093 28.7742 225.093 26.8827C225.093 25.4747 225.164 24.2089 225.306 23.0853C225.463 21.9618 225.712 20.888 226.053 19.864C226.394 18.84 226.863 17.9582 227.461 17.2187C228.058 16.4649 228.791 15.8107 229.658 15.256C230.526 14.7013 231.578 14.2889 232.816 14.0187C234.053 13.7342 235.461 13.592 237.04 13.592C237.751 13.592 238.426 13.6347 239.066 13.72C239.72 13.8053 240.275 13.912 240.73 14.04C241.185 14.1538 241.612 14.3031 242.01 14.488C242.423 14.6587 242.743 14.8151 242.97 14.9573C243.212 15.0853 243.432 15.2276 243.632 15.384C243.831 15.5404 243.951 15.6471 243.994 15.704C244.051 15.7609 244.094 15.8036 244.122 15.832L243.802 20.7387H239.919L238.703 17.9013C238.391 17.7307 237.886 17.6453 237.189 17.6453C236.62 17.6453 236.151 17.6951 235.781 17.7947C235.411 17.8942 235.041 18.1076 234.672 18.4347C234.316 18.7476 234.031 19.2098 233.818 19.8213C233.619 20.4187 233.455 21.2364 233.328 22.2747C233.2 23.2987 233.135 24.5502 233.135 26.0293C233.135 29.1156 233.299 31.4053 233.626 32.8987C233.967 34.392 234.643 35.1387 235.653 35.1387C236.151 35.1387 236.57 35.096 236.911 35.0107C237.253 34.9111 237.573 34.7404 237.872 34.4987C238.17 34.2427 238.391 33.8729 238.533 33.3893C238.675 32.8916 238.746 32.2587 238.746 31.4907V29.3147L235.93 28.6747V24.3227H245.424L245.402 39H241.605L241.349 36.7387Z" fill="#F4F4F4"/>
<path d="M41.9 43.43C42.3467 43.43 42.74 43.56 43.08 43.82C43.42 44.0733 43.6867 44.4367 43.88 44.91C44.0733 45.3833 44.17 45.94 44.17 46.58C44.17 47.22 44.0733 47.7767 43.88 48.25C43.6867 48.7233 43.42 49.09 43.08 49.35C42.74 49.61 42.3467 49.74 41.9 49.74C41.46 49.74 41.0667 49.61 40.72 49.35C40.38 49.09 40.1133 48.7233 39.92 48.25C39.7267 47.7767 39.63 47.22 39.63 46.58C39.63 45.94 39.7267 45.3833 39.92 44.91C40.1133 44.4367 40.38 44.0733 40.72 43.82C41.0667 43.56 41.46 43.43 41.9 43.43ZM41.9 44.17C41.6133 44.17 41.3567 44.27 41.13 44.47C40.91 44.6633 40.7367 44.9433 40.61 45.31C40.4833 45.67 40.42 46.0933 40.42 46.58C40.42 47.0667 40.4833 47.4933 40.61 47.86C40.7367 48.22 40.91 48.5 41.13 48.7C41.3567 48.9 41.6167 49 41.91 49C42.1967 49 42.45 48.9 42.67 48.7C42.8967 48.5 43.07 48.22 43.19 47.86C43.3167 47.4933 43.38 47.0667 43.38 46.58C43.38 46.0933 43.3167 45.67 43.19 45.31C43.07 44.9433 42.8967 44.6633 42.67 44.47C42.45 44.27 42.1933 44.17 41.9 44.17ZM45.62 42.73H46.45V51.78H45.62V42.73ZM46.26 46.34H47.93V47.04H46.26V46.34ZM48.8092 43.7H53.8492V44.38H48.8092V43.7ZM48.6892 49.54L48.5892 48.84C49.1292 48.84 49.7192 48.8367 50.3592 48.83C50.9992 48.8167 51.6559 48.7933 52.3292 48.76C53.0026 48.72 53.6459 48.6633 54.2592 48.59L54.3092 49.21C53.6826 49.31 53.0359 49.3833 52.3692 49.43C51.7026 49.4767 51.0526 49.5067 50.4192 49.52C49.7926 49.5333 49.2159 49.54 48.6892 49.54ZM49.7792 44.22H50.5892V49.03H49.7792V44.22ZM52.0692 44.22H52.8692V49.03H52.0692V44.22ZM54.8192 42.73H55.6492V51.78H54.8192V42.73ZM55.4592 46.35H57.1292V47.04H55.4592V46.35ZM58.9484 47.61H65.1584V48.28H58.9484V47.61ZM57.8984 49.92H66.0984V50.61H57.8984V49.92ZM58.9484 43.51H65.0684V44.19H59.7884V47.81H58.9484V43.51ZM59.5284 45.52H64.8684V46.19H59.5284V45.52ZM76.1881 42.73H77.0081V51.78H76.1881V42.73ZM74.0781 46.36H76.5581V47.05H74.0781V46.36ZM73.2881 43.71H74.0981C74.0981 44.35 74.0248 44.9733 73.8781 45.58C73.7381 46.18 73.5081 46.75 73.1881 47.29C72.8748 47.83 72.4581 48.3333 71.9381 48.8C71.4181 49.2667 70.7815 49.6867 70.0281 50.06L69.5681 49.41C70.2281 49.09 70.7915 48.73 71.2581 48.33C71.7315 47.93 72.1181 47.4967 72.4181 47.03C72.7181 46.5567 72.9381 46.0567 73.0781 45.53C73.2181 44.9967 73.2881 44.4333 73.2881 43.84V43.71ZM69.9681 43.71H73.7181V44.38H69.9681V43.71ZM79.0773 48.92H79.6673C80.2207 48.92 80.7607 48.9067 81.2873 48.88C81.814 48.8467 82.3807 48.78 82.9873 48.68L83.0673 49.36C82.4407 49.4733 81.8573 49.5467 81.3173 49.58C80.784 49.6067 80.234 49.62 79.6673 49.62H79.0773V48.92ZM79.0573 43.71H82.4373V46.89H79.8773V49.18H79.0773V46.21H81.6373V44.4H79.0573V43.71ZM85.6573 42.73H86.4473V51.78H85.6573V42.73ZM84.1273 46.3H85.8673V46.98H84.1273V46.3ZM83.6073 42.93H84.3773V51.31H83.6073V42.93ZM94.7366 44.14H96.3366V44.84H94.7366V44.14ZM94.7366 46.04H96.3366V46.74H94.7366V46.04ZM94.1666 42.74H94.9966V48.21H94.1666V42.74ZM88.3666 46.99H89.0766C89.6232 46.99 90.1266 46.9833 90.5866 46.97C91.0532 46.9567 91.5032 46.93 91.9366 46.89C92.3766 46.8433 92.8299 46.78 93.2966 46.7L93.3766 47.38C92.8966 47.46 92.4332 47.5233 91.9866 47.57C91.5466 47.61 91.0899 47.64 90.6166 47.66C90.1499 47.6733 89.6366 47.68 89.0766 47.68H88.3666V46.99ZM88.3466 43.3H92.4166V45.75H89.1866V47.43H88.3666V45.11H91.6066V43.97H88.3466V43.3ZM92.1066 48.47C92.7199 48.47 93.2466 48.5367 93.6866 48.67C94.1332 48.8033 94.4766 48.99 94.7166 49.23C94.9566 49.47 95.0766 49.7667 95.0766 50.12C95.0766 50.64 94.8099 51.0433 94.2766 51.33C93.7499 51.6167 93.0266 51.76 92.1066 51.76C91.4866 51.76 90.9532 51.6967 90.5066 51.57C90.0666 51.4433 89.7266 51.2567 89.4866 51.01C89.2466 50.7633 89.1266 50.4667 89.1266 50.12C89.1266 49.7667 89.2466 49.47 89.4866 49.23C89.7266 48.99 90.0666 48.8033 90.5066 48.67C90.9532 48.5367 91.4866 48.47 92.1066 48.47ZM92.1066 49.12C91.6532 49.12 91.2632 49.16 90.9366 49.24C90.6166 49.32 90.3699 49.4333 90.1966 49.58C90.0232 49.7267 89.9366 49.9067 89.9366 50.12C89.9366 50.3267 90.0232 50.5067 90.1966 50.66C90.3699 50.8067 90.6166 50.92 90.9366 51C91.2632 51.08 91.6532 51.12 92.1066 51.12C92.5532 51.12 92.9399 51.08 93.2666 51C93.5932 50.92 93.8399 50.8067 94.0066 50.66C94.1799 50.5067 94.2666 50.3267 94.2666 50.12C94.2666 49.9067 94.1799 49.7267 94.0066 49.58C93.8399 49.4333 93.5932 49.32 93.2666 49.24C92.9399 49.16 92.5532 49.12 92.1066 49.12ZM106.486 42.74H107.276V48.31H106.486V42.74ZM105.026 45.14H106.726V45.82H105.026V45.14ZM104.486 42.91H105.266V47.99H104.486V42.91ZM100.066 47.11H100.656C101.083 47.11 101.476 47.1033 101.836 47.09C102.203 47.0767 102.56 47.0533 102.906 47.02C103.253 46.98 103.606 46.9233 103.966 46.85L104.056 47.52C103.676 47.5933 103.31 47.65 102.956 47.69C102.603 47.7233 102.24 47.75 101.866 47.77C101.493 47.7833 101.09 47.79 100.656 47.79H100.066V47.11ZM100.046 43.41H103.446V45.86H100.866V47.61H100.066V45.23H102.646V44.08H100.046V43.41ZM104.306 48.49C104.926 48.49 105.46 48.5567 105.906 48.69C106.36 48.8167 106.71 49 106.956 49.24C107.203 49.48 107.326 49.7733 107.326 50.12C107.326 50.46 107.203 50.7533 106.956 51C106.71 51.2467 106.36 51.4333 105.906 51.56C105.46 51.6933 104.926 51.76 104.306 51.76C103.686 51.76 103.15 51.6933 102.696 51.56C102.243 51.4333 101.893 51.2467 101.646 51C101.406 50.7533 101.286 50.46 101.286 50.12C101.286 49.7733 101.406 49.48 101.646 49.24C101.893 49 102.243 48.8167 102.696 48.69C103.15 48.5567 103.686 48.49 104.306 48.49ZM104.306 49.14C103.626 49.14 103.09 49.2267 102.696 49.4C102.303 49.5733 102.106 49.8133 102.106 50.12C102.106 50.4333 102.303 50.6767 102.696 50.85C103.09 51.0233 103.626 51.11 104.306 51.11C104.76 51.11 105.15 51.0733 105.476 51C105.803 50.92 106.053 50.8067 106.226 50.66C106.406 50.5067 106.496 50.3267 106.496 50.12C106.496 49.9133 106.406 49.7367 106.226 49.59C106.053 49.4433 105.803 49.3333 105.476 49.26C105.15 49.18 104.76 49.14 104.306 49.14ZM112.755 43.35H113.625C113.625 44.13 113.475 44.8333 113.175 45.46C112.875 46.0867 112.415 46.6333 111.795 47.1C111.182 47.56 110.392 47.9333 109.425 48.22L109.105 47.55C109.752 47.3633 110.305 47.14 110.765 46.88C111.225 46.62 111.602 46.3267 111.895 46C112.189 45.6667 112.405 45.3067 112.545 44.92C112.685 44.5333 112.755 44.12 112.755 43.68V43.35ZM109.495 43.35H113.205V44.02H109.495V43.35ZM112.645 45.02V45.6L109.185 45.86L109.045 45.18L112.645 45.02ZM115.435 42.74H116.265V48.17H115.435V42.74ZM113.285 48.3C113.912 48.3 114.449 48.37 114.895 48.51C115.349 48.65 115.699 48.8467 115.945 49.1C116.192 49.3533 116.315 49.6633 116.315 50.03C116.315 50.3967 116.192 50.71 115.945 50.97C115.699 51.23 115.349 51.4267 114.895 51.56C114.449 51.6933 113.912 51.76 113.285 51.76C112.659 51.76 112.119 51.6933 111.665 51.56C111.212 51.4267 110.862 51.23 110.615 50.97C110.369 50.71 110.245 50.3967 110.245 50.03C110.245 49.6633 110.369 49.3533 110.615 49.1C110.862 48.8467 111.212 48.65 111.665 48.51C112.119 48.37 112.659 48.3 113.285 48.3ZM113.285 48.96C112.825 48.96 112.429 49.0033 112.095 49.09C111.769 49.1767 111.515 49.3 111.335 49.46C111.162 49.6133 111.075 49.8033 111.075 50.03C111.075 50.25 111.162 50.4433 111.335 50.61C111.515 50.77 111.769 50.8933 112.095 50.98C112.429 51.0667 112.825 51.11 113.285 51.11C113.739 51.11 114.129 51.0667 114.455 50.98C114.789 50.8933 115.042 50.77 115.215 50.61C115.395 50.4433 115.485 50.25 115.485 50.03C115.485 49.8033 115.395 49.6133 115.215 49.46C115.042 49.3 114.789 49.1767 114.455 49.09C114.129 49.0033 113.739 48.96 113.285 48.96ZM122.604 47.6064V48.3486H120.221V47.6064H122.604ZM132.389 42.73H133.209V51.78H132.389V42.73ZM130.279 46.36H132.759V47.05H130.279V46.36ZM129.489 43.71H130.299C130.299 44.35 130.226 44.9733 130.079 45.58C129.939 46.18 129.709 46.75 129.389 47.29C129.076 47.83 128.659 48.3333 128.139 48.8C127.619 49.2667 126.983 49.6867 126.229 50.06L125.769 49.41C126.429 49.09 126.993 48.73 127.459 48.33C127.933 47.93 128.319 47.4967 128.619 47.03C128.919 46.5567 129.139 46.0567 129.279 45.53C129.419 44.9967 129.489 44.4333 129.489 43.84V43.71ZM126.169 43.71H129.919V44.38H126.169V43.71ZM135.279 48.92H135.869C136.422 48.92 136.962 48.9067 137.489 48.88C138.015 48.8467 138.582 48.78 139.189 48.68L139.269 49.36C138.642 49.4733 138.059 49.5467 137.519 49.58C136.985 49.6067 136.435 49.62 135.869 49.62H135.279V48.92ZM135.259 43.71H138.639V46.89H136.079V49.18H135.279V46.21H137.839V44.4H135.259V43.71ZM141.859 42.73H142.649V51.78H141.859V42.73ZM140.329 46.3H142.069V46.98H140.329V46.3ZM139.809 42.93H140.579V51.31H139.809V42.93ZM150.938 44.14H152.538V44.84H150.938V44.14ZM150.938 46.04H152.538V46.74H150.938V46.04ZM150.368 42.74H151.198V48.21H150.368V42.74ZM144.568 46.99H145.278C145.824 46.99 146.328 46.9833 146.788 46.97C147.254 46.9567 147.704 46.93 148.138 46.89C148.578 46.8433 149.031 46.78 149.498 46.7L149.578 47.38C149.098 47.46 148.634 47.5233 148.188 47.57C147.748 47.61 147.291 47.64 146.818 47.66C146.351 47.6733 145.838 47.68 145.278 47.68H144.568V46.99ZM144.548 43.3H148.618V45.75H145.388V47.43H144.568V45.11H147.808V43.97H144.548V43.3ZM148.308 48.47C148.921 48.47 149.448 48.5367 149.888 48.67C150.334 48.8033 150.678 48.99 150.918 49.23C151.158 49.47 151.278 49.7667 151.278 50.12C151.278 50.64 151.011 51.0433 150.478 51.33C149.951 51.6167 149.228 51.76 148.308 51.76C147.688 51.76 147.154 51.6967 146.708 51.57C146.268 51.4433 145.928 51.2567 145.688 51.01C145.448 50.7633 145.328 50.4667 145.328 50.12C145.328 49.7667 145.448 49.47 145.688 49.23C145.928 48.99 146.268 48.8033 146.708 48.67C147.154 48.5367 147.688 48.47 148.308 48.47ZM148.308 49.12C147.854 49.12 147.464 49.16 147.138 49.24C146.818 49.32 146.571 49.4333 146.398 49.58C146.224 49.7267 146.138 49.9067 146.138 50.12C146.138 50.3267 146.224 50.5067 146.398 50.66C146.571 50.8067 146.818 50.92 147.138 51C147.464 51.08 147.854 51.12 148.308 51.12C148.754 51.12 149.141 51.08 149.468 51C149.794 50.92 150.041 50.8067 150.208 50.66C150.381 50.5067 150.468 50.3267 150.468 50.12C150.468 49.9067 150.381 49.7267 150.208 49.58C150.041 49.4333 149.794 49.32 149.468 49.24C149.141 49.16 148.754 49.12 148.308 49.12ZM159.947 42.73H160.777V51.79H159.947V42.73ZM156.007 43.43C156.454 43.43 156.847 43.56 157.187 43.82C157.534 44.0733 157.804 44.4367 157.997 44.91C158.197 45.3833 158.297 45.94 158.297 46.58C158.297 47.22 158.197 47.7767 157.997 48.25C157.804 48.7233 157.534 49.09 157.187 49.35C156.847 49.61 156.454 49.74 156.007 49.74C155.56 49.74 155.164 49.61 154.817 49.35C154.47 49.09 154.197 48.7233 153.997 48.25C153.804 47.7767 153.707 47.22 153.707 46.58C153.707 45.94 153.804 45.3833 153.997 44.91C154.197 44.4367 154.47 44.0733 154.817 43.82C155.164 43.56 155.56 43.43 156.007 43.43ZM156.007 44.17C155.707 44.17 155.444 44.27 155.217 44.47C154.997 44.6633 154.824 44.9433 154.697 45.31C154.57 45.67 154.507 46.0933 154.507 46.58C154.507 47.0667 154.57 47.4933 154.697 47.86C154.824 48.22 154.997 48.5 155.217 48.7C155.444 48.9 155.707 49 156.007 49C156.3 49 156.557 48.9 156.777 48.7C157.004 48.5 157.18 48.22 157.307 47.86C157.434 47.4933 157.497 47.0667 157.497 46.58C157.497 46.0933 157.434 45.67 157.307 45.31C157.18 44.9433 157.004 44.6633 156.777 44.47C156.557 44.27 156.3 44.17 156.007 44.17ZM171.247 42.73H172.077V47.35H171.247V42.73ZM171.717 44.77H173.407V45.46H171.717V44.77ZM165.427 43.33H169.587V47.02H165.427V43.33ZM168.777 43.99H166.237V46.35H168.777V43.99ZM165.997 50.86H166.437C166.617 50.86 166.827 50.8533 167.067 50.84C167.307 50.82 167.56 50.79 167.827 50.75C168.093 50.7033 168.357 50.6367 168.617 50.55L168.747 51.21C168.46 51.3033 168.177 51.3733 167.897 51.42C167.623 51.4667 167.363 51.4967 167.117 51.51C166.87 51.53 166.643 51.54 166.437 51.54H165.997V50.86ZM165.997 48.17H166.807V51.04H165.997V48.17ZM168.427 48.27H172.957V48.89H168.427V48.27ZM170.697 49.22C171.19 49.22 171.59 49.3367 171.897 49.57C172.21 49.7967 172.367 50.1033 172.367 50.49C172.367 50.8833 172.21 51.1933 171.897 51.42C171.59 51.6467 171.19 51.76 170.697 51.76C170.203 51.76 169.8 51.6467 169.487 51.42C169.173 51.1933 169.017 50.8833 169.017 50.49C169.017 50.1033 169.173 49.7967 169.487 49.57C169.8 49.3367 170.203 49.22 170.697 49.22ZM170.697 49.81C170.423 49.81 170.197 49.8733 170.017 50C169.843 50.12 169.757 50.2833 169.757 50.49C169.757 50.6967 169.843 50.8633 170.017 50.99C170.197 51.1167 170.423 51.18 170.697 51.18C170.97 51.18 171.193 51.1167 171.367 50.99C171.54 50.8633 171.627 50.6967 171.627 50.49C171.627 50.2833 171.54 50.12 171.367 50C171.193 49.8733 170.97 49.81 170.697 49.81ZM170.297 47.47H171.107V48.71H170.297V47.47ZM174.256 47.49H182.426V48.16H174.256V47.49ZM175.306 50.9H181.516V51.58H175.306V50.9ZM175.306 48.96H176.136V51.1H175.306V48.96ZM178.336 43.04C178.983 43.04 179.543 43.1133 180.016 43.26C180.496 43.4 180.866 43.6067 181.126 43.88C181.386 44.1467 181.516 44.4667 181.516 44.84C181.516 45.2133 181.386 45.5367 181.126 45.81C180.866 46.0833 180.496 46.2933 180.016 46.44C179.543 46.58 178.983 46.65 178.336 46.65C177.689 46.65 177.126 46.58 176.646 46.44C176.173 46.2933 175.806 46.0833 175.546 45.81C175.286 45.5367 175.156 45.2133 175.156 44.84C175.156 44.4667 175.286 44.1467 175.546 43.88C175.806 43.6067 176.173 43.4 176.646 43.26C177.126 43.1133 177.689 43.04 178.336 43.04ZM178.336 43.71C177.869 43.71 177.459 43.7567 177.106 43.85C176.759 43.9367 176.489 44.0667 176.296 44.24C176.103 44.4067 176.006 44.6067 176.006 44.84C176.006 45.0733 176.103 45.2767 176.296 45.45C176.489 45.6167 176.759 45.7467 177.106 45.84C177.459 45.9267 177.869 45.97 178.336 45.97C178.816 45.97 179.229 45.9267 179.576 45.84C179.923 45.7467 180.189 45.6167 180.376 45.45C180.569 45.2767 180.666 45.0733 180.666 44.84C180.666 44.6067 180.569 44.4067 180.376 44.24C180.189 44.0667 179.923 43.9367 179.576 43.85C179.229 43.7567 178.816 43.71 178.336 43.71ZM186.906 43.17H192.726V43.83H186.906V43.17ZM185.946 46.97H194.096V47.64H185.946V46.97ZM189.296 45.15H190.116V47.08H189.296V45.15ZM192.246 43.17H193.066V43.81C193.066 44.15 193.056 44.5267 193.036 44.94C193.016 45.3467 192.949 45.8167 192.836 46.35L192.016 46.26C192.136 45.7333 192.202 45.2767 192.216 44.89C192.236 44.4967 192.246 44.1367 192.246 43.81V43.17ZM189.566 48.36H190.286V48.76C190.286 49.16 190.192 49.5267 190.006 49.86C189.826 50.1867 189.576 50.48 189.256 50.74C188.936 50.9933 188.569 51.2033 188.156 51.37C187.742 51.5433 187.302 51.6667 186.836 51.74L186.526 51.09C186.939 51.03 187.329 50.9333 187.696 50.8C188.062 50.66 188.386 50.4867 188.666 50.28C188.946 50.0733 189.166 49.8433 189.326 49.59C189.486 49.33 189.566 49.0533 189.566 48.76V48.36ZM189.686 48.36H190.406V48.76C190.406 49.0533 190.486 49.33 190.646 49.59C190.806 49.8433 191.026 50.0733 191.306 50.28C191.592 50.4867 191.919 50.66 192.286 50.8C192.652 50.9333 193.042 51.03 193.456 51.09L193.136 51.74C192.669 51.6667 192.229 51.5433 191.816 51.37C191.402 51.2033 191.036 50.9933 190.716 50.74C190.396 50.48 190.142 50.1867 189.956 49.86C189.776 49.5267 189.686 49.16 189.686 48.76V48.36ZM201.705 42.73H202.535V51.79H201.705V42.73ZM197.765 43.43C198.211 43.43 198.605 43.56 198.945 43.82C199.291 44.0733 199.561 44.4367 199.755 44.91C199.955 45.3833 200.055 45.94 200.055 46.58C200.055 47.22 199.955 47.7767 199.755 48.25C199.561 48.7233 199.291 49.09 198.945 49.35C198.605 49.61 198.211 49.74 197.765 49.74C197.318 49.74 196.921 49.61 196.575 49.35C196.228 49.09 195.955 48.7233 195.755 48.25C195.561 47.7767 195.465 47.22 195.465 46.58C195.465 45.94 195.561 45.3833 195.755 44.91C195.955 44.4367 196.228 44.0733 196.575 43.82C196.921 43.56 197.318 43.43 197.765 43.43ZM197.765 44.17C197.465 44.17 197.201 44.27 196.975 44.47C196.755 44.6633 196.581 44.9433 196.455 45.31C196.328 45.67 196.265 46.0933 196.265 46.58C196.265 47.0667 196.328 47.4933 196.455 47.86C196.581 48.22 196.755 48.5 196.975 48.7C197.201 48.9 197.465 49 197.765 49C198.058 49 198.315 48.9 198.535 48.7C198.761 48.5 198.938 48.22 199.065 47.86C199.191 47.4933 199.255 47.0667 199.255 46.58C199.255 46.0933 199.191 45.67 199.065 45.31C198.938 44.9433 198.761 44.6633 198.535 44.47C198.315 44.27 198.058 44.17 197.765 44.17ZM207.784 43.15H213.604V43.82H207.784V43.15ZM206.824 46.82H214.974V47.5H206.824V46.82ZM210.174 45.13H210.994V47.06H210.174V45.13ZM213.124 43.15H213.944V43.91C213.944 44.2767 213.934 44.6533 213.914 45.04C213.894 45.42 213.824 45.8433 213.704 46.31L212.884 46.21C213.004 45.75 213.074 45.34 213.094 44.98C213.114 44.6133 213.124 44.2567 213.124 43.91V43.15ZM207.834 48.49H213.934V49.16H208.664V51.35H207.834V48.49ZM207.834 50.97H214.054V51.65H207.834V50.97ZM218.514 43.75H223.854V44.41H218.514V43.75ZM221.184 44.88C221.611 44.88 221.987 44.95 222.314 45.09C222.641 45.2233 222.894 45.4133 223.074 45.66C223.254 45.9 223.344 46.1833 223.344 46.51C223.344 46.8367 223.254 47.1233 223.074 47.37C222.894 47.6167 222.641 47.81 222.314 47.95C221.987 48.0833 221.611 48.15 221.184 48.15C220.757 48.15 220.381 48.0833 220.054 47.95C219.727 47.81 219.471 47.6167 219.284 47.37C219.104 47.1233 219.014 46.8367 219.014 46.51C219.014 46.1833 219.104 45.9 219.284 45.66C219.471 45.4133 219.727 45.2233 220.054 45.09C220.381 44.95 220.757 44.88 221.184 44.88ZM221.184 45.53C220.771 45.53 220.437 45.62 220.184 45.8C219.937 45.9733 219.814 46.21 219.814 46.51C219.814 46.81 219.937 47.05 220.184 47.23C220.437 47.41 220.771 47.5 221.184 47.5C221.591 47.5 221.921 47.41 222.174 47.23C222.427 47.05 222.554 46.81 222.554 46.51C222.554 46.21 222.427 45.9733 222.174 45.8C221.921 45.62 221.591 45.53 221.184 45.53ZM220.774 42.67H221.604V44.08H220.774V42.67ZM224.684 42.73H225.514V49.07H224.684V42.73ZM225.284 45.35H226.844V46.05H225.284V45.35ZM222.364 48.57H223.074V48.71C223.074 49.1233 222.981 49.5 222.794 49.84C222.614 50.1733 222.364 50.47 222.044 50.73C221.731 50.9833 221.367 51.1933 220.954 51.36C220.541 51.5333 220.107 51.66 219.654 51.74L219.344 51.1C219.744 51.04 220.124 50.94 220.484 50.8C220.851 50.6533 221.174 50.4767 221.454 50.27C221.741 50.0633 221.964 49.83 222.124 49.57C222.284 49.3033 222.364 49.0167 222.364 48.71V48.57ZM222.484 48.57H223.184V48.71C223.184 49.0167 223.264 49.3033 223.424 49.57C223.591 49.83 223.814 50.0633 224.094 50.27C224.381 50.4767 224.704 50.6533 225.064 50.8C225.431 50.94 225.814 51.04 226.214 51.1L225.904 51.74C225.451 51.66 225.017 51.5333 224.604 51.36C224.197 51.1933 223.834 50.9833 223.514 50.73C223.194 50.47 222.941 50.1733 222.754 49.84C222.574 49.5 222.484 49.1233 222.484 48.71V48.57ZM233.883 42.74H234.713V49.52H233.883V42.74ZM234.453 45.71H236.043V46.4H234.453V45.71ZM227.713 43.84H233.053V44.51H227.713V43.84ZM230.383 45C230.81 45 231.187 45.0733 231.513 45.22C231.84 45.36 232.093 45.5567 232.273 45.81C232.453 46.0567 232.543 46.35 232.543 46.69C232.543 47.03 232.453 47.3267 232.273 47.58C232.093 47.8267 231.84 48.02 231.513 48.16C231.187 48.3 230.81 48.37 230.383 48.37C229.957 48.37 229.58 48.3 229.253 48.16C228.927 48.02 228.67 47.8267 228.483 47.58C228.303 47.3267 228.213 47.03 228.213 46.69C228.213 46.35 228.303 46.0567 228.483 45.81C228.67 45.5567 228.927 45.36 229.253 45.22C229.58 45.0733 229.957 45 230.383 45ZM230.383 45.65C229.977 45.65 229.647 45.7467 229.393 45.94C229.14 46.1267 229.013 46.3767 229.013 46.69C229.013 47.0033 229.14 47.2533 229.393 47.44C229.647 47.6267 229.977 47.72 230.383 47.72C230.797 47.72 231.127 47.6267 231.373 47.44C231.627 47.2533 231.753 47.0033 231.753 46.69C231.753 46.3767 231.627 46.1267 231.373 45.94C231.127 45.7467 230.797 45.65 230.383 45.65ZM229.973 42.74H230.803V44.18H229.973V42.74ZM229.083 50.9H235.113V51.58H229.083V50.9ZM229.083 48.98H229.903V51.18H229.083V48.98ZM240.343 43.17H246.163V43.83H240.343V43.17ZM239.383 46.97H247.533V47.64H239.383V46.97ZM242.733 45.15H243.553V47.08H242.733V45.15ZM245.683 43.17H246.503V43.81C246.503 44.15 246.493 44.5267 246.473 44.94C246.453 45.3467 246.386 45.8167 246.273 46.35L245.453 46.26C245.573 45.7333 245.64 45.2767 245.653 44.89C245.673 44.4967 245.683 44.1367 245.683 43.81V43.17ZM243.003 48.36H243.723V48.76C243.723 49.16 243.63 49.5267 243.443 49.86C243.263 50.1867 243.013 50.48 242.693 50.74C242.373 50.9933 242.006 51.2033 241.593 51.37C241.18 51.5433 240.74 51.6667 240.273 51.74L239.963 51.09C240.376 51.03 240.766 50.9333 241.133 50.8C241.5 50.66 241.823 50.4867 242.103 50.28C242.383 50.0733 242.603 49.8433 242.763 49.59C242.923 49.33 243.003 49.0533 243.003 48.76V48.36ZM243.123 48.36H243.843V48.76C243.843 49.0533 243.923 49.33 244.083 49.59C244.243 49.8433 244.463 50.0733 244.743 50.28C245.03 50.4867 245.356 50.66 245.723 50.8C246.09 50.9333 246.48 51.03 246.893 51.09L246.573 51.74C246.106 51.6667 245.666 51.5433 245.253 51.37C244.84 51.2033 244.473 50.9933 244.153 50.74C243.833 50.48 243.58 50.1867 243.393 49.86C243.213 49.5267 243.123 49.16 243.123 48.76V48.36Z" fill="#ADB3C7"/>
</svg>
